<svg width="36" height="48" viewBox="0 0 36 48" fill="none" xmlns="http://www.w3.org/2000/svg">
<path d="M15 -6.10352e-05C16.6594 -6.10352e-05 18 1.34056 18 2.99994V13.4999H12V2.99994C12 1.34056 13.3406 -6.10352e-05 15 -6.10352e-05ZM3 5.99994C3 4.34056 4.34062 2.99994 6 2.99994C7.65938 2.99994 9 4.34056 9 5.99994V13.4999H3V5.99994ZM21 5.99994C21 4.34056 22.3406 2.99994 24 2.99994C25.6594 2.99994 27 4.34056 27 5.99994V14.9999C27 16.6593 25.6594 17.9999 24 17.9999C22.3406 17.9999 21 16.6593 21 14.9999V5.99994ZM30 11.9999C30 10.3406 31.3406 8.99994 33 8.99994C34.6594 8.99994 36 10.3406 36 11.9999V17.9999C36 19.6593 34.6594 20.9999 33 20.9999C31.3406 20.9999 30 19.6593 30 17.9999V11.9999ZM21 20.2499V20.1937C21.8813 20.6999 22.9031 20.9999 24 20.9999C25.2375 20.9999 26.3813 20.6249 27.3375 19.9874C28.1531 22.3218 30.3844 23.9999 33 23.9999C34.0969 23.9999 35.1188 23.7093 36 23.1937V23.9999C36 28.9031 33.6469 33.2624 30 35.9999V44.9999C30 46.6593 28.6594 47.9999 27 47.9999H12C10.3406 47.9999 9 46.6593 9 44.9999V37.6499C7.37813 36.9093 5.8875 35.8874 4.60312 34.6031L3.51562 33.5156C1.26562 31.2656 0 28.2093 0 25.0312V22.4999C0 19.1906 2.69063 16.4999 6 16.4999H14.25C16.3219 16.4999 18 18.1781 18 20.2499C18 22.3218 16.3219 23.9999 14.25 23.9999H9C8.175 23.9999 7.5 24.6749 7.5 25.4999C7.5 26.3249 8.175 26.9999 9 26.9999H14.25C17.9813 26.9999 21 23.9812 21 20.2499Z" fill="#0B0A0C"/>
</svg>
