<svg width="48" height="42" viewBox="0 0 48 42" fill="none" xmlns="http://www.w3.org/2000/svg">
<path d="M4.4625 24.2059L21.4031 40.0215C22.1063 40.6778 23.0344 41.0434 24 41.0434C24.9656 41.0434 25.8938 40.6778 26.5969 40.0215L43.5375 24.2059C46.3875 21.5528 48 17.8309 48 13.9403V13.3965C48 6.84341 43.2656 1.25591 36.8063 0.177785C32.5312 -0.534715 28.1812 0.86216 25.125 3.91841L24 5.04341L22.875 3.91841C19.8188 0.86216 15.4688 -0.534715 11.1938 0.177785C4.73438 1.25591 0 6.84341 0 13.3965V13.9403C0 17.8309 1.6125 21.5528 4.4625 24.2059Z" fill="#0B0A0C"/>
</svg>
